HIERARCHY
ROOT hip
{
	OFFSET 0.000000 0.000000 0.000000 
	CHANNELS 6 Xposition Yposition Zposition Xrotation Zrotation Yrotation
	JOINT abdomen
	{
		OFFSET 0.000000 3.402643 0.000000 
		CHANNELS 3 Xrotation Zrotation Yrotation
		JOINT chest
		{
			OFFSET 0.000000 8.438565 -0.680529 
			CHANNELS 3 Xrotation Zrotation Yrotation
			JOINT neck
			{
				OFFSET 0.000000 10.207942 -0.272212 
				CHANNELS 3 Xrotation Zrotation Yrotation
				JOINT head
				{
					OFFSET 0.000000 3.130431 0.000000 
					CHANNELS 3 Xrotation Zrotation Yrotation
					End Site
					{
						OFFSET 0.000000 3.130435 0.000000 
					}
				}
			}
			JOINT lCollar
			{
				OFFSET 3.470700 6.669187 -0.816635 
				CHANNELS 3 Yrotation Zrotation Xrotation
				JOINT lShldr
				{
					OFFSET 3.198488 0.000000 0.000000 
					CHANNELS 3 Zrotation Yrotation Xrotation
					JOINT lForeArm
					{
						OFFSET 10.139888 0.000000 0.000000 
						CHANNELS 3 Yrotation Zrotation Xrotation
						JOINT lHand
						{
							OFFSET 8.370511 0.000000 0.000000 
							CHANNELS 3 Zrotation Yrotation Xrotation
							End Site
							{
								OFFSET 4.083176 0.000000 0.000000 
							}
						}
					}
				}
			}
			JOINT rCollar
			{
				OFFSET -3.470700 6.669187 -0.816635 
				CHANNELS 3 Yrotation Zrotation Xrotation
				JOINT rShldr
				{
					OFFSET -3.198488 0.000000 0.000000 
					CHANNELS 3 Zrotation Yrotation Xrotation
					JOINT rForeArm
					{
						OFFSET -10.139888 0.000000 0.000000 
						CHANNELS 3 Yrotation Zrotation Xrotation
						JOINT rHand
						{
							OFFSET -8.370511 0.000000 0.000000 
							CHANNELS 3 Zrotation Yrotation Xrotation
							End Site
							{
								OFFSET -4.083176 0.000000 0.000000 
							}
						}
					}
				}
			}
		}
	}
	JOINT lThigh
	{
		OFFSET 5.308129 -1.633274 1.361059 
		CHANNELS 3 Xrotation Zrotation Yrotation
		JOINT lShin
		{
			OFFSET -2.041588 -20.007561 0.000000 
			CHANNELS 3 Xrotation Zrotation Yrotation
			JOINT lFoot
			{
				OFFSET 0.000000 -19.190928 -1.224953 
				CHANNELS 3 Xrotation Yrotation Zrotation
				End Site
				{
					OFFSET 0.000000 -2.449906 4.627600 
				}
			}
		}
	}
	JOINT rThigh
	{
		OFFSET -5.308129 -1.633274 1.361059 
		CHANNELS 3 Xrotation Zrotation Yrotation
		JOINT rShin
		{
			OFFSET 2.041588 -20.007561 0.000000 
			CHANNELS 3 Xrotation Zrotation Yrotation
			JOINT rFoot
			{
				OFFSET 0.000000 -19.190928 -1.224953 
				CHANNELS 3 Xrotation Yrotation Zrotation
				End Site
				{
					OFFSET 0.000000 -2.449906 4.627600 
				}
			}
		}
	}
}
MOTION
Frames: 19
Frame Time: 0.033333
1.076390 44.883110 -62.454956 5.625000 -4.580078 43.222267 25.839844 1.943359 -1.152344 -17.568359 -1.289063 -1.582031 -10.996094 1.591797 -19.707033 4.423828 1.591797 -19.579805 -0.556641 6.943371 0.233194 -76.445313 -27.490234 56.748051 -74.765625 -2.753906 -24.169922 4.492187 7.558594 0.322266 -5.107422 -0.273438 -0.039063 68.603516 17.812500 4.501953 89.287109 3.769531 -56.064453 -22.324219 5.703125 -2.197266 -18.729549 13.738976 17.335196 46.320450 -0.901709 -2.896729 -27.631771 11.825780 1.136374 -46.086185 -18.560505 -8.377402 56.505814 -0.362726 2.968107 -9.500681 -0.382229 4.853569 
1.275284 44.686123 -61.691097 5.263671 -4.394531 43.759766 25.312500 1.572266 -2.216529 -17.919922 -0.751953 -2.461066 -10.341797 1.474609 -18.994139 4.951172 1.943359 -18.857422 -0.556641 6.767590 0.233224 -76.494141 -28.808590 59.833988 -74.394531 -2.568359 -21.493704 3.583984 6.689453 0.205078 -5.283203 -0.273438 -0.039016 67.431633 11.630860 4.082031 92.714844 3.730469 -56.738628 -23.925781 7.812500 -3.436170 -17.722727 14.333277 16.136858 46.496258 -0.918603 -2.903304 -28.291058 12.102306 1.380426 -46.966522 -18.385538 -7.816237 59.834042 -0.546955 3.218270 -9.252936 -1.267083 4.452329 
1.483480 44.434406 -60.745872 4.746094 -4.228516 44.628906 24.951172 1.035156 -3.349599 -18.095701 -0.751953 -3.164191 -9.863281 1.708984 -18.310549 5.478516 2.119140 -18.310186 -0.205078 6.767582 0.184396 -76.630859 -30.888674 62.895374 -74.277344 -2.617188 -19.277344 2.304688 6.171875 -0.078125 -5.810547 -0.097656 -0.029297 65.849609 4.804688 4.003906 96.503906 3.779297 -57.090488 -26.171875 10.000001 -4.646739 -16.519974 15.072815 14.938993 46.673328 -0.781943 -2.866583 -28.712076 11.336329 1.343142 -48.314545 -18.454130 -7.535251 63.345776 -0.722516 3.259168 -9.223145 -2.314506 4.526901 
1.694179 44.122112 -59.656006 4.384766 -4.228516 45.332035 24.589844 0.507813 -4.472563 -18.623047 -0.576172 -4.052735 -9.189452 1.406250 -17.753668 6.181641 2.646484 -17.763670 0.312500 6.591797 0.302734 -77.363281 -33.466797 66.391098 -74.541016 -2.441406 -17.285158 0.878906 5.986328 -0.166016 -6.337891 -0.097656 -0.029297 64.306641 -3.134766 4.491653 100.478516 3.642578 -57.842415 -28.652344 11.464843 -6.003919 -15.114968 16.294849 14.443676 47.001373 -0.423382 -2.919945 -29.428621 10.763800 1.007410 -49.484074 -17.886881 -7.062079 66.507469 -1.074067 3.348875 -9.348759 -4.039331 4.094080 
1.916683 43.762955 -58.457634 3.867187 -4.052734 46.210938 24.228516 0.244141 -5.312496 -19.150389 -0.927734 -4.765783 -8.701172 0.927734 -17.187344 6.884765 3.359375 -17.207033 0.664063 6.591797 0.262551 -78.310547 -36.523434 70.068359 -74.814453 -2.412109 -15.067945 -0.546875 5.449219 -0.283203 -6.689453 -0.263672 -0.048783 63.359375 -11.054687 5.115316 103.662109 3.789063 -58.427734 -29.980467 11.699219 -6.365208 -13.544985 17.538862 13.283192 47.036629 -0.553569 -2.791330 -30.122723 10.371103 0.790627 -51.040871 -17.879238 -6.555724 67.920624 -0.898230 3.345443 -9.247882 -5.599389 3.938305 
2.130483 43.329876 -57.146221 3.681641 -3.876953 46.748047 24.218752 -0.019531 -6.142581 -19.677736 -1.279297 -5.302734 -8.720703 0.439453 -16.787035 7.763672 3.886719 -16.825510 1.191406 6.591797 0.195313 -79.326172 -39.912109 73.544922 -74.785156 -2.158203 -12.948851 -1.962891 4.560547 -0.371094 -7.031250 -1.162109 0.019729 63.457035 -17.861328 6.188412 105.742188 3.701172 -58.330711 -31.005863 12.041016 -6.865235 -11.591456 18.895493 13.244789 46.825420 -0.413706 -2.917099 -30.548346 10.067907 0.815203 -53.046082 -18.281088 -6.032553 67.910942 -0.888362 3.351413 -9.751175 -7.063663 3.603794 
2.339273 42.840508 -55.737141 3.339844 -3.691406 47.285156 24.199219 -0.175781 -6.757813 -19.853516 -1.630859 -6.005860 -9.277344 -0.214844 -16.201206 8.818360 4.238281 -16.259043 1.523438 6.777344 0.330879 -80.507813 -43.232422 75.888672 -74.638672 -2.197266 -11.113280 -3.896484 3.652343 -0.429065 -7.207030 -2.060547 0.088242 64.287117 -23.164063 7.945379 107.207031 3.681641 -56.846329 -33.544922 12.978517 -8.113040 -9.648049 20.603437 13.067083 46.661224 -0.589295 -3.165130 -30.978056 9.837678 0.925831 -55.003876 -18.816069 -5.392292 66.327370 -0.888722 3.100862 -10.086835 -7.538202 3.367407 
2.509669 42.299511 -54.243050 3.339844 -3.876953 47.440746 24.365232 -0.166016 -7.314453 -20.029297 -1.630859 -6.357422 -10.703125 -1.074252 -15.946972 9.873046 4.414062 -16.044922 2.236328 7.128906 0.223397 -82.041016 -46.777344 77.649132 -73.886719 -2.138672 -10.429686 -5.664063 2.734375 -0.507813 -7.558594 -2.929688 -0.039062 65.410156 -24.892580 9.199219 108.691406 3.750000 -55.205715 -36.455078 13.476563 -9.482423 -7.733845 22.388880 12.786828 46.143833 -0.891912 -2.912436 -31.213018 9.636806 0.802107 -57.361958 -19.482128 -4.233648 63.328457 -0.888688 3.324522 -9.692690 -7.882829 3.407344 
2.670764 41.723099 -52.685520 3.339844 -4.052734 47.792976 24.707031 0.058594 -7.421874 -20.380859 -1.630859 -6.719028 -12.119141 -1.757813 -15.712892 10.576172 4.414062 -15.849609 2.734375 7.841796 0.302734 -82.714844 -50.087891 77.834305 -72.402344 -2.138672 -11.239868 -6.523438 1.679688 -0.448933 -8.076172 -3.300781 0.058594 66.494148 -22.421875 9.420103 110.380859 3.632813 -53.388672 -39.277344 13.115233 -10.244143 -5.810176 24.092289 12.903626 45.626762 -0.589116 -2.589843 -30.893929 9.429996 0.814392 -59.865803 -20.553965 -2.525260 59.668541 -0.546659 3.201531 -8.761774 -7.439224 3.693217 
2.819220 41.107933 -51.076008 3.681640 -4.394531 48.154297 24.882811 0.615234 -7.412109 -20.908205 -1.455078 -6.728516 -13.691407 -2.822266 -15.791013 11.103516 4.589844 -16.005077 3.066406 8.906251 0.371094 -83.818359 -53.203125 75.927734 -69.130859 -2.246094 -13.114852 -7.558594 0.644531 -0.214844 -8.955078 -3.476563 -0.018939 67.187500 -15.214846 8.457032 111.464844 3.525391 -50.849606 -41.806641 12.587890 -10.634765 -4.248599 25.604792 12.218102 44.745380 -0.650264 -2.899298 -30.026081 10.058374 0.552775 -62.185982 -22.323952 -0.736188 54.916908 -0.507716 3.020477 -8.517790 -6.445643 3.956438 
2.977571 40.449963 -49.379326 4.384766 -4.931641 48.671879 25.068357 1.328125 -6.787108 -21.611328 -1.445313 -6.562501 -15.585937 -4.111328 -16.387419 11.640625 4.765625 -16.689453 3.740235 9.804688 0.369431 -85.419922 -56.103516 72.958984 -64.785156 -2.519531 -17.705080 -8.437500 -0.068359 -0.166016 -9.824218 -3.847656 0.039718 67.207031 -3.398438 6.854889 110.175781 3.525391 -47.871090 -43.623047 11.787110 -10.623004 -2.676603 26.984974 11.304159 43.179459 -0.805827 -2.685345 -28.783649 10.550421 0.770237 -64.488907 -24.608372 1.984864 50.534885 -0.000036 2.894632 -9.130762 -5.928973 4.002127 
3.131989 39.756454 -47.604897 5.625000 -5.634766 49.550289 25.273438 2.246094 -5.712507 -22.666018 -1.621094 -5.869141 -17.636721 -5.087891 -17.353514 12.343750 4.765625 -17.723799 4.199219 11.230470 0.546875 -87.861328 -59.082031 71.007248 -60.175785 -2.851563 -24.277346 -7.910156 0.117188 -0.195313 -10.341797 -4.404297 0.078125 65.673828 11.337892 4.267578 105.263672 3.476563 -46.113876 -42.998051 9.814452 -8.750000 -1.270187 28.260866 10.559028 41.230484 -0.971593 -2.489664 -27.079227 11.174225 0.825555 -66.108421 -27.205391 4.256771 46.491665 0.158792 2.612994 -9.665958 -6.037866 4.090275 
3.270786 39.057697 -45.735435 7.558595 -6.337891 50.780170 25.146484 3.330078 -4.013671 -23.896484 -2.324219 -4.658599 -19.667967 -6.083984 -18.692440 12.343750 4.765625 -19.305830 5.009766 12.666015 0.583796 -92.812500 -62.314453 72.589012 -58.251953 -3.125000 -32.675251 -4.062500 2.597656 -0.419922 -10.664063 -5.498047 0.206014 61.728519 27.626953 -0.600938 96.542969 3.583984 -46.582031 -39.677738 5.185547 -4.160157 -0.215468 28.905880 9.729127 38.774132 -0.961235 -2.533346 -24.291796 11.276406 -0.042723 -68.218300 -30.711372 5.936448 43.859734 0.335099 2.735034 -8.919424 -6.807645 3.789178 
3.327783 38.405212 -43.777847 10.019530 -7.041016 52.177738 25.185547 4.462891 -1.932834 -25.126953 -3.730469 -3.106104 -22.187500 -6.767579 -20.390625 12.167969 4.062500 -21.073526 5.996094 13.935548 0.556641 -101.718750 -66.494141 79.414879 -60.419922 -3.242188 -39.911831 3.408203 8.095703 0.214844 -10.283202 -6.572265 0.215961 53.417969 43.125000 -10.794105 82.119141 3.583984 -48.613281 -31.308594 -2.167969 0.917599 -0.206354 29.835394 9.079959 36.131241 -1.126793 -2.274168 -20.450647 10.482859 -1.382849 -70.860184 -34.225163 6.151679 43.518780 0.156351 2.651647 -4.748266 -6.443226 4.495692 
3.270905 37.882702 -41.735962 12.480469 -8.095703 53.759769 25.400391 5.693360 0.372063 -26.533205 -5.488282 -1.367187 -24.531252 -7.617188 -22.109375 11.816405 3.007812 -23.017576 7.490234 14.716795 0.625000 61.083992 -109.697266 -87.333412 -65.068359 -3.232422 -42.851013 10.761719 16.660156 2.568359 -9.013672 -8.154297 0.284588 37.226563 55.097656 -29.318161 62.822262 3.437500 -49.638672 -17.421877 -11.914063 3.056641 -0.918643 30.902092 8.475676 34.022278 -1.126329 -2.164397 -15.029954 8.758191 -2.815107 -75.300575 -37.059742 6.446490 45.968391 0.029310 2.701759 2.872991 -3.833683 4.989429 
3.106591 37.543217 -39.650795 14.931641 -9.326173 55.019531 25.966797 7.099610 2.734375 -27.763672 -7.587890 0.361328 -27.070311 -7.910156 -23.516972 11.816405 1.601562 -24.599613 9.345703 14.990235 0.602943 32.236336 -108.398438 -64.472160 -68.593750 -3.398438 -44.492191 14.101563 26.601563 5.566407 -6.513672 -10.048828 0.410156 13.554688 60.078125 -54.356773 43.173828 3.457031 -45.458988 -2.792969 -21.640625 0.201478 -3.027825 32.302979 8.617457 33.319897 -1.116324 -2.115629 -8.482772 7.245963 -3.982397 -80.977066 -38.662403 7.272517 51.077583 -0.193476 2.657115 9.309343 -0.521713 5.310379 
2.894460 37.410503 -37.574089 17.041016 -10.371094 56.072464 26.718750 8.505859 4.561992 -28.466795 -9.697266 1.756168 -28.906252 -7.480468 -24.775393 11.640625 0.546875 -25.488279 11.533203 14.970702 0.751953 5.195315 -111.210938 -44.110668 -68.945313 -3.388672 -49.091797 15.029299 33.916016 7.534745 -3.701171 -11.923828 0.431705 -5.390625 58.486328 -71.466286 29.570314 3.183594 -35.557182 8.984375 -26.503906 -5.043419 -6.513669 33.469456 9.168996 34.361912 -1.101047 -2.514701 -3.049377 6.862141 -4.807121 -86.166847 -38.982521 8.426289 57.382885 -0.359886 3.037357 10.687101 -0.191759 4.657483 
2.686027 37.480972 -35.571312 18.623047 -11.259766 57.127003 27.802734 9.541016 5.859375 -28.994143 -11.455078 2.617188 -29.716797 -6.308594 -25.576172 11.113280 0.195312 -26.035154 13.525391 15.498048 0.817703 -10.937505 -114.384766 -32.509766 -67.734375 -3.554688 -53.916016 15.605470 36.787109 8.472645 -1.425781 -13.125000 0.529561 -14.453126 55.166016 -75.566406 22.880859 2.812500 -24.550783 16.923828 -24.462893 -8.138811 -10.204555 34.045830 10.437484 36.465733 -1.277282 -2.687778 -0.956545 7.825459 -5.092297 -90.078697 -39.000694 9.104908 62.978359 -1.054715 3.396507 8.837473 -1.200572 5.127771 
2.514319 37.734718 -33.693264 19.853514 -11.962891 58.007813 28.730467 10.419922 6.542969 -29.169922 -12.333984 2.790883 -29.326172 -4.589843 -26.074221 10.410156 -0.332031 -26.240257 15.693358 16.386721 0.664063 -19.101561 -115.039063 -25.419003 -68.076164 -3.623047 -56.366570 15.341797 36.142582 8.222656 -0.566406 -12.929708 0.558825 -19.296875 53.173828 -77.052727 21.230469 2.500000 -19.199217 19.853516 -20.908205 -8.069892 -13.203120 33.728775 12.646090 38.224789 -0.955550 -2.843040 -2.023712 8.008913 -4.793632 -92.290886 -38.631535 9.583883 67.551758 -1.054403 3.403280 6.617062 -3.351534 5.008615 
